<svg width="27" height="27" viewBox="0 0 27 27" fill="none" xmlns="http://www.w3.org/2000/svg">
<path d="M1.92847 6.75H25.0713" stroke="#B5B5B5" stroke-width="1.92857" stroke-linecap="round" stroke-linejoin="round"/>
<path d="M4.82153 6.75H22.1787V24.1071C22.1787 24.6186 21.9754 25.1092 21.6138 25.4708C21.2522 25.8324 20.7616 26.0357 20.2501 26.0357H6.7501C6.23861 26.0357 5.74808 25.8324 5.38639 25.4708C5.02473 25.1092 4.82153 24.6186 4.82153 24.1071V6.75Z" stroke="#B5B5B5" stroke-width="1.92857" stroke-linecap="round" stroke-linejoin="round"/>
<path d="M8.67847 6.75007V5.78578C8.67847 4.50706 9.18643 3.2807 10.0906 2.37651C10.9948 1.47233 12.2212 0.964355 13.4999 0.964355C14.7786 0.964355 16.005 1.47233 16.9092 2.37651C17.8134 3.2807 18.3213 4.50706 18.3213 5.78578V6.75007" stroke="#B5B5B5" stroke-width="1.92857" stroke-linecap="round" stroke-linejoin="round"/>
<path d="M10.6072 12.5386V20.2558" stroke="#B5B5B5" stroke-width="1.92857" stroke-linecap="round" stroke-linejoin="round"/>
<path d="M16.3928 12.5386V20.2558" stroke="#B5B5B5" stroke-width="1.92857" stroke-linecap="round" stroke-linejoin="round"/>
</svg>
