<svg width="24" height="24" viewBox="0 0 24 24" fill="none" xmlns="http://www.w3.org/2000/svg">
<path d="M23.1429 21.4284C23.1429 21.883 22.9622 22.3191 22.6408 22.6405C22.3193 22.962 21.8832 23.1426 21.4286 23.1426H2.57146C2.1168 23.1426 1.68077 22.962 1.35928 22.6405C1.03779 22.3191 0.857178 21.883 0.857178 21.4284V8.41693C0.859072 7.96721 1.03762 7.53624 1.35432 7.21693L7.21718 1.35408C7.53648 1.03737 7.96745 0.858828 8.41718 0.856934H21.4286C21.8832 0.856934 22.3193 1.03755 22.6408 1.35904C22.9622 1.68053 23.1429 2.11656 23.1429 2.57122V21.4284Z" stroke="#B5B5B5" stroke-width="1.7" stroke-linecap="round" stroke-linejoin="round"/>
<path d="M18 23.1427V15.4284C18 15.2011 17.9097 14.9831 17.749 14.8223C17.5882 14.6616 17.3702 14.5713 17.1429 14.5713H6.85714C6.62981 14.5713 6.41179 14.6616 6.25106 14.8223C6.09031 14.9831 6 15.2011 6 15.4284V23.1427" stroke="#B5B5B5" stroke-width="1.7" stroke-linecap="round" stroke-linejoin="round"/>
<path d="M18.0001 0.856934V6.85693C18.0001 7.08427 17.9098 7.30229 17.7492 7.46302C17.5884 7.62377 17.3703 7.71408 17.143 7.71408H10.2859C10.0585 7.71408 9.8405 7.62377 9.67977 7.46302C9.51902 7.30229 9.42871 7.08427 9.42871 6.85693V0.856934" stroke="#B5B5B5" stroke-width="1.7" stroke-linecap="round" stroke-linejoin="round"/>
</svg>
