<svg width="24" height="20" viewBox="0 0 24 20" fill="none" xmlns="http://www.w3.org/2000/svg">
<path d="M2.57146 18.5711H21.4286C22.3754 18.5711 23.1429 17.8036 23.1429 16.8568V3.14251C23.1429 2.19573 22.3754 1.42822 21.4286 1.42822H2.57146C1.62469 1.42822 0.857178 2.19573 0.857178 3.14251V16.8568C0.857178 17.8036 1.62469 18.5711 2.57146 18.5711Z" stroke="#B5B5B5" stroke-width="1.71429" stroke-linecap="round" stroke-linejoin="round"/>
<path d="M16.2889 8.64959C17.4678 8.64959 18.4235 7.6939 18.4235 6.51498C18.4235 5.33607 17.4678 4.38037 16.2889 4.38037C15.11 4.38037 14.1543 5.33607 14.1543 6.51498C14.1543 7.6939 15.11 8.64959 16.2889 8.64959Z" stroke="#B5B5B5" stroke-width="1.71429" stroke-linecap="round" stroke-linejoin="round"/>
<path d="M15.5704 18.5711C15.0381 15.7359 13.5157 13.182 11.275 11.3652C9.03427 9.5484 6.22092 8.58683 3.33693 8.65204C2.50485 8.64983 1.67447 8.72733 0.857178 8.88348" stroke="#B5B5B5" stroke-width="1.71429" stroke-linecap="round" stroke-linejoin="round"/>
<path d="M23.1427 13.3266C21.7924 12.8706 20.3767 12.6384 18.9515 12.6392C17.1475 12.6353 15.3618 13.0004 13.7041 13.7121" stroke="#B5B5B5" stroke-width="1.71429" stroke-linecap="round" stroke-linejoin="round"/>
</svg>
