<svg width="24" height="24" viewBox="0 0 24 24" fill="none" xmlns="http://www.w3.org/2000/svg">
<path d="M21.4286 0.856934H2.57146C1.62469 0.856934 0.857178 1.62445 0.857178 2.57122V21.4284C0.857178 22.3752 1.62469 23.1426 2.57146 23.1426H21.4286C22.3754 23.1426 23.1429 22.3752 23.1429 21.4284V2.57122C23.1429 1.62445 22.3754 0.856934 21.4286 0.856934Z" stroke="#B5B5B5" stroke-width="1.7" stroke-linecap="round" stroke-linejoin="round"/>
<path d="M8.96582 15.8227V8.41696C8.96647 8.29305 8.99985 8.17153 9.06261 8.06467C9.12537 7.95782 9.21525 7.86947 9.32315 7.80856C9.43106 7.74765 9.55313 7.71635 9.67704 7.71782C9.80095 7.7193 9.92225 7.7535 10.0287 7.81696L16.3715 11.5027C16.4783 11.5644 16.567 11.6531 16.6286 11.7599C16.6903 11.8668 16.7228 11.9879 16.7228 12.1112C16.7228 12.2346 16.6903 12.3558 16.6286 12.4626C16.567 12.5694 16.4783 12.6581 16.3715 12.7198L10.0287 16.4227C9.92225 16.4862 9.80095 16.5204 9.67704 16.5218C9.55313 16.5233 9.43106 16.492 9.32315 16.4311C9.21525 16.3702 9.12537 16.2818 9.06261 16.175C8.99985 16.0681 8.96647 15.9466 8.96582 15.8227Z" stroke="#B5B5B5" stroke-width="1.7" stroke-linecap="round" stroke-linejoin="round"/>
</svg>
